# xmcd CD database file
#
# Track frame offsets:
#	150
#	20062
#	43331
#	58665
#	71603
#	90202
#	107861
#	125523
#	143538
#	149372
#	163838
#	171274
#	187129
#	191980
#	210812
#	216323
#	224989
#	227065
#	245408
#	259226
#
# Disc length: 3673 seconds
#
# Revision: 0
# Processed by: cddbd v1.5.2PL0 Copyright (c) Steve Scherf et al.
# Submitted via: CDex 1.51
#
DISCID=410e5714
DTITLE=Rossana Casale - Circo Immaginario
DYEAR=2006
DGENRE=Jazz
TTITLE0=La bella confusione (Ouverture)
TTITLE1=Il battello di carta
TTITLE2=Circo
TTITLE3=Girasalta
TTITLE4=Dentro gli occhi chiusi
TTITLE5=Il matto del paese
TTITLE6=Boscomare
TTITLE7=Gioir d'amore
TTITLE8=Dolce Sofia
TTITLE9=Vino Divino
TTITLE10=La folle danza di Groppo
TTITLE11=La verità
TTITLE12=Girasalta reprise
TTITLE13=La bella confusione
TTITLE14=La tempesta
TTITLE15=Il Circo immaginario
TTITLE16=Il Circo immaginario reprise
TTITLE17=Micol sul filo
TTITLE18=Polvere di luci
TTITLE19=La bella confusione (Titoli di coda)
EXTD=YEAR: 2006
EXTT0=
EXTT1=
EXTT2=
EXTT3=
EXTT4=
EXTT5=
EXTT6=
EXTT7=
EXTT8=
EXTT9=
EXTT10=
EXTT11=
EXTT12=
EXTT13=
EXTT14=
EXTT15=
EXTT16=
EXTT17=
EXTT18=
EXTT19=
PLAYORDER=
